# xmcd
#
# Track frame offsets: 
#        150
#        14732
#        27220
#        41118
#        55866
#        70852
#        84761
#        99337
#        113694
#        127341
#        140033
#        153654
#        167559
#        182860
#        196344
#        209931
#        222838
#        236714
#        248253
#        262343
#        275306
#        289830
#        303274
#        316788
#        330897
#
# Disc length: 4599 seconds
#
# Revision: 1
# Processed by: cddbd v1.5.2PL0 Copyright (c) Steve Scherf et al.
# Submitted via: ExactAudioCopyFreeDBPlugin 1.0
#
DISCID=7111f519
DTITLE=Various Artist - Lonesome Whistle:  An Anthology of American R
DTITLE=ailroad Song
DYEAR=2012
DGENRE=Trains
TTITLE0=Nelstone's Hawaiians - North-Bound Train (1928)
TTITLE1=Jimmie Rodgers - Waiting for a Train (1928)
TTITLE2=Frenchy's String Band - Texas and Pacific Blues (1928)
TTITLE3=Mississippi John Hurt - Spike Driver (1928)
TTITLE4=Carter Family - Engine One-Forty-Three (1929)
TTITLE5=Carolina Tar Heels - The Train's Done Left Me (1929)
TTITLE6=Lonnie Coleman - Old Rock Island Blues (1929)
TTITLE7=Darby and Tarlton - The New York Hobo (1929)
TTITLE8=E.E. Hack String Band - Western Kentucky Limited (1929)
TTITLE9=Eddie Mapp and His Harmonica - Riding the Blinds (1929)
TTITLE10=Buell Kazee - The Hobo's Last Ride (1929)
TTITLE11=Charley Patton - Pea Vine Blues (1929)
TTITLE12=Frank Hutchison - Cannonball Blues (1929)
TTITLE13=Jimmie Rodgers - Train Whistle Blues (1929)
TTITLE14=Will Bennett - Railroad Bill (1929)
TTITLE15=Furry Lewis - John Henry (The Steel Driving Man), Part 1 (192
TTITLE15=9)
TTITLE16=Robert Wilkins - Long Train Blues (1929)
TTITLE17=Memphis Jug Band - K.C. Moan (1929)
TTITLE18=Darby and Tarlton - Freight Train Ramble (1929)
TTITLE19=Darby and Tarlton - Lonesome Frisco Line (1929)
TTITLE20=Blind Sammie (Blind Willie McTell) - Travellin' Blues (1929)
TTITLE21=Caerter Family - Wabash Cannonball (1929)
TTITLE22=Washington White (Bukka White) - The New 'Frisco Train (1930)
TTITLE23=Willie Brown - M&O Blues (1930)
TTITLE24=Walter Davis - M&O Blues (1930)
EXTD=
EXTT0=
EXTT1=
EXTT2=
EXTT3=
EXTT4=
EXTT5=
EXTT6=
EXTT7=
EXTT8=
EXTT9=
EXTT10=
EXTT11=
EXTT12=
EXTT13=
EXTT14=
EXTT15=
EXTT16=
EXTT17=
EXTT18=
EXTT19=
EXTT20=
EXTT21=
EXTT22=
EXTT23=
EXTT24=
PLAYORDER=
